<svg width="24" height="24" viewBox="0 0 24 24" fill="none" xmlns="http://www.w3.org/2000/svg">
<path d="M18.0847 15.7627L21.9869 18.609C21.9921 18.6132 21.996 18.6188 21.9982 18.6251C22.0003 18.6314 22.0006 18.6383 21.999 18.6448C21.9973 18.6513 21.9939 18.6572 21.989 18.6618C21.9842 18.6664 21.9781 18.6695 21.9715 18.6707L19.7007 18.9955C19.5901 19.0115 19.4777 18.9846 19.3861 18.9205L17.0938 17.3036C17.0103 17.2441 16.9068 17.2201 16.8058 17.2368C15.8056 17.4002 10.2802 18.2143 8.05963 16.6077C8.05963 16.6077 4.57552 14.7163 4.8522 10.8154L4.99975 8.08117C5.00368 8.00746 4.98823 7.934 4.95496 7.86816C4.92169 7.80232 4.87177 7.74637 4.81018 7.70597L3.0302 6.53828C3.02012 6.5318 3.01199 6.52267 3.00671 6.51188C3.00143 6.50109 2.9992 6.48907 3.00026 6.4771C3.00131 6.46513 3.00562 6.45366 3.0127 6.44397C3.01979 6.43428 3.02938 6.42672 3.04045 6.42211L5.10838 5.53401C5.12789 5.52556 5.145 5.51242 5.15823 5.49574C5.17146 5.47906 5.18039 5.45938 5.18421 5.43842C5.25389 5.07763 5.66277 3.36924 7.23369 3.04442C7.6456 2.96531 8.07078 2.99218 8.46953 3.12254C8.80769 3.22533 9.23193 3.41343 9.51681 3.72283C10.3253 4.60066 10.3458 7.25575 12.3308 9.66928C14.0728 11.7919 15.7985 14.2476 16.5947 14.6474C16.6021 14.6513 16.608 14.6575 16.6114 14.6651C16.6148 14.6727 16.6156 14.6812 16.6136 14.6893C16.6116 14.6974 16.6069 14.7046 16.6003 14.7097C16.5937 14.7148 16.5856 14.7175 16.5773 14.7173C15.363 14.7173 11.4536 14.9383 9.30162 13.4499C9.30162 13.4499 7.55956 12.2062 7.60465 10.9357C7.64974 9.66518 8.5136 8.81714 8.5136 8.81714" stroke="#1E88E5" stroke-miterlimit="10" stroke-linecap="round"/>
<path d="M11 18L10 21" stroke="#1E88E5" stroke-miterlimit="10"/>
<path d="M13 18L12 21" stroke="#1E88E5" stroke-miterlimit="10"/>
<path d="M8 21H14" stroke="#1E88E5" stroke-miterlimit="10" stroke-linecap="round"/>
<path d="M7.5 6C7.77614 6 8 5.77614 8 5.5C8 5.22386 7.77614 5 7.5 5C7.22386 5 7 5.22386 7 5.5C7 5.77614 7.22386 6 7.5 6Z" fill="#1E88E5"/>
</svg>
