<svg width="24" height="24" viewBox="0 0 24 24" fill="none" xmlns="http://www.w3.org/2000/svg">
<path d="M16.1071 21.3288H18.1566C18.1997 21.329 18.2424 21.3197 18.2816 21.3016C18.3208 21.2834 18.3555 21.2569 18.3833 21.2239C18.4111 21.1908 18.4313 21.1521 18.4424 21.1104C18.4536 21.0687 18.4554 21.025 18.4478 20.9825C18.4267 20.8673 18.3986 20.7535 18.3637 20.6417C18.2497 20.2845 18.0247 19.973 17.7215 19.7525C17.4183 19.5319 17.0527 19.4138 16.6777 19.4153H15.8213C15.812 19.4153 15.803 19.4119 15.796 19.4058C15.7891 19.3996 15.7846 19.3911 15.7835 19.3818L15.6444 15.9042C15.6431 15.868 15.6501 15.832 15.6648 15.7989C15.6796 15.7658 15.7018 15.7365 15.7296 15.7133C16.2085 15.3153 18.1533 14.104 18.2256 10.2769C18.2256 9.94573 18.1933 9.00082 18.1933 9.00082C18.2105 8.87354 18.2256 8.52513 18.7078 8.43453C19.2104 8.33853 20.4671 8.27381 20.7788 7.62877C20.889 7.41356 20.9619 7.18125 20.9945 6.94168C21.0121 6.7871 20.9871 6.63063 20.9223 6.4892C20.8575 6.34778 20.7553 6.22674 20.6267 6.13914C20.4304 6.00431 20.1197 5.7325 19.589 5.26113C18.8092 4.56863 18.9138 3.43927 17.1416 3.12322M16.9227 4.17804V2.05741C16.9229 2.04855 16.921 2.03977 16.9171 2.03178C16.9133 2.0238 16.9076 2.01682 16.9006 2.01145C16.8935 2.00609 16.8853 2.00247 16.8766 2.00089C16.8678 1.99932 16.8589 1.99983 16.8504 2.00239C16.4254 2.13183 13.8301 3.07348 13.2498 7.53588C13.237 7.63665 13.1919 7.73059 13.1214 7.80367C13.0508 7.87676 12.9585 7.92507 12.8583 7.94146C11.9846 8.08384 9.43139 9.09563 8.62887 9.94777C7.177 11.4924 6.4133 11.9228 6.03362 18.0431M6.46063 9.84112C6.46063 9.84112 4.8545 6.00219 2.53539 6.28156C1.84397 6.36569 1.85475 7.39474 2.38114 7.77443C3.08334 8.2814 4.29145 8.97928 4.38745 10.4085C4.52768 12.5194 3.91392 14.3327 3.96461 16.6647C3.99266 17.9332 4.71967 21.2932 5.76596 21.4895C6.64291 21.6556 12.3113 21.5424 14.0716 21.5025C14.1422 21.5012 14.2116 21.4851 14.2756 21.4553C14.3396 21.4255 14.3966 21.3827 14.443 21.3296C14.4894 21.2764 14.5242 21.2142 14.5452 21.1468C14.5661 21.0794 14.5727 21.0084 14.5646 20.9383C14.4966 20.3763 14.2809 19.5846 13.611 19.548C12.843 19.507 11.801 19.5415 11.3059 19.563C11.287 19.5643 11.2682 19.5593 11.2522 19.549C11.2363 19.5387 11.2241 19.5236 11.2175 19.5058C11.2108 19.488 11.2101 19.4686 11.2153 19.4503C11.2206 19.4321 11.2315 19.416 11.2466 19.4045C13.0696 17.9105 13.9433 14.7663 10.4592 14.68" stroke="#1E88E5" stroke-miterlimit="10" stroke-linecap="round"/>
</svg>
