<svg width="24" height="24" viewBox="0 0 24 24" fill="none" xmlns="http://www.w3.org/2000/svg">
<path d="M15.2171 21.7798H17.1804C17.2421 21.7802 17.3032 21.7675 17.3597 21.7426C17.4162 21.7177 17.4669 21.6812 17.5083 21.6354C17.5497 21.5896 17.581 21.5356 17.6001 21.4769C17.6193 21.4183 17.6258 21.3562 17.6193 21.2948C17.559 20.7812 17.3724 20.0426 16.804 20.0339C16.1642 20.0229 15.3708 19.9746 14.9922 19.9483C14.9311 19.9442 14.8737 19.9178 14.831 19.8741C14.7883 19.8303 14.7632 19.7723 14.7606 19.7112L14.6092 16.4914C14.601 16.4074 14.615 16.3227 14.6497 16.2457C14.6843 16.1688 14.7384 16.1021 14.8067 16.0525C15.382 15.6278 15.8948 15.1243 16.3299 14.5567C17.0041 13.6476 17.3405 12.532 17.2813 11.4017L17.1222 7.93173C17.1215 7.92134 17.1229 7.91091 17.1263 7.90108C17.1298 7.89125 17.1353 7.88224 17.1424 7.87461C17.1495 7.86699 17.1581 7.86091 17.1676 7.85677C17.1772 7.85263 17.1875 7.8505 17.1979 7.85053H19.4026C19.6579 7.85079 19.9049 7.76017 20.0995 7.59485C20.5011 7.25027 21.0761 6.52707 20.9916 5.2486C20.988 5.20147 20.9717 5.15619 20.9445 5.11756C20.9173 5.07892 20.8801 5.04836 20.8369 5.02912L18.6498 4.06233C18.5577 4.00962 18.4881 3.92484 18.4545 3.82418C18.2975 3.35888 17.6314 1.97617 15.2621 2.00031C15.2621 2.00031 13.3966 2.0003 12.3705 4.01842C11.4618 5.7984 11.3708 7.22064 11.5694 8.19732C11.6956 8.81845 12.0314 9.48677 12.6426 9.65797C13.1716 9.80612 13.9387 9.72052 14.3315 9.43849C15.193 8.83272 14.9647 5.5043 14.9647 5.5043M10.1725 9.46695C10.1725 9.46695 6.39196 12.3114 5.61939 14.3943C4.96095 16.1501 4.96862 18.4195 4.96862 18.4195M8.20913 15.2019C8.20913 15.2019 10.5861 14.2274 11.3598 15.3731C12.0796 16.4409 11.3378 18.2933 10.3984 19.7737C10.3677 19.8209 10.3809 19.8768 10.4358 19.8724C11.0525 19.8132 12.5581 19.7627 13.2067 20.4639C13.216 20.4737 13.2248 20.4839 13.233 20.4947C13.3351 20.6143 13.9178 21.3407 13.582 21.8039C13.5096 21.9026 6.72106 21.8137 4.81049 21.7863C4.50411 21.7829 4.20359 21.702 3.93701 21.551C3.67044 21.3999 3.44652 21.1837 3.2862 20.9226C2.92625 20.3333 2.62117 19.3424 2.66287 17.6842C2.67889 17.0363 2.8213 16.3977 3.08208 15.8044C3.54848 14.7465 4.04779 12.7722 3.52104 11.8603C3.13352 11.1828 2.62894 10.5794 2.03077 10.0781C2.01755 10.0677 2.00793 10.0533 2.00322 10.0371C1.99852 10.0209 1.99897 10.0037 2.00452 9.98776C2.01007 9.97184 2.02044 9.95803 2.0342 9.94827C2.04795 9.93851 2.06439 9.93328 2.08126 9.93329C2.76384 9.92451 4.77317 10.043 5.31748 11.6891" stroke="#1E88E5" stroke-miterlimit="10" stroke-linecap="round"/>
</svg>
