<svg width="24" height="25" viewBox="0 0 24 25" fill="none" xmlns="http://www.w3.org/2000/svg">
<path d="M11.08 21.5C11.0092 21.5003 10.939 21.4854 10.8735 21.4563C10.808 21.4272 10.7485 21.3843 10.6983 21.3303C10.6481 21.2762 10.6083 21.2119 10.5811 21.1411C10.554 21.0704 10.54 20.9945 10.54 20.9179V12.8744H8.764C7.23578 12.8727 5.77061 12.215 4.68999 11.0458C3.60938 9.8766 3.00159 8.2913 3 6.63778C3.00053 6.4832 3.05766 6.33514 3.15887 6.22604C3.26008 6.11693 3.39713 6.05567 3.54 6.05567H7.884L10.256 4.18816C10.8251 3.73911 11.5117 3.49806 12.216 3.50001C14.5444 3.50459 16.7762 4.50739 18.4226 6.28878C20.069 8.07017 20.9958 10.4849 21 13.0042V14.1338C21 14.2888 20.9431 14.4374 20.8418 14.547C20.7406 14.6565 20.6032 14.7181 20.46 14.7181H13.578C13.4348 14.7181 13.2974 14.6565 13.1962 14.547C13.0949 14.4374 13.038 14.2888 13.038 14.1338V7.35189C13.038 7.19694 13.0949 7.04832 13.1962 6.93875C13.2974 6.82918 13.4348 6.76762 13.578 6.76762C13.7212 6.76762 13.8586 6.82918 13.9598 6.93875C14.0611 7.04832 14.118 7.19694 14.118 7.35189V13.5517H19.918V13.0042C19.9159 10.7943 19.1039 8.67557 17.66 7.11254C16.2162 5.54952 14.2584 4.66983 12.216 4.6664C11.7384 4.66823 11.2739 4.83502 10.89 5.14247L8.376 7.11169C8.28393 7.18335 8.17341 7.22195 8.06 7.22206H4.11C4.24368 8.45659 4.79131 9.59517 5.6491 10.422C6.50688 11.2488 7.61521 11.7064 8.764 11.708H11.08C11.2218 11.708 11.358 11.7683 11.459 11.876C11.5601 11.9838 11.6179 12.1301 11.62 12.2836V20.0047L20.234 15.694C20.2982 15.6619 20.3677 15.6438 20.4383 15.6407C20.509 15.6377 20.5796 15.6497 20.646 15.6761C20.7124 15.7025 20.7733 15.7428 20.8253 15.7947C20.8773 15.8466 20.9193 15.9091 20.949 15.9786C20.9787 16.0481 20.9954 16.1232 20.9983 16.1997C21.0011 16.2762 20.99 16.3525 20.9656 16.4243C20.9412 16.4962 20.9039 16.5621 20.8559 16.6184C20.808 16.6746 20.7502 16.7201 20.686 16.7522L11.306 21.4459C11.2353 21.4819 11.1581 21.5004 11.08 21.5Z" fill="#1E88E5"/>
<path d="M11.2161 8.68486C11.7054 8.68486 12.1021 8.25566 12.1021 7.72621C12.1021 7.19677 11.7054 6.76757 11.2161 6.76757C10.7268 6.76757 10.3301 7.19677 10.3301 7.72621C10.3301 8.25566 10.7268 8.68486 11.2161 8.68486Z" fill="#1E88E5"/>
<path d="M11.08 21.5C11.0092 21.5003 10.939 21.4854 10.8735 21.4563C10.808 21.4272 10.7485 21.3843 10.6983 21.3303C10.6481 21.2762 10.6083 21.2119 10.5811 21.1411C10.554 21.0704 10.54 20.9945 10.54 20.9179V12.8744H8.764C7.23578 12.8727 5.77061 12.215 4.68999 11.0458C3.60938 9.8766 3.00159 8.2913 3 6.63778C3.00053 6.4832 3.05766 6.33514 3.15887 6.22604C3.26008 6.11693 3.39713 6.05567 3.54 6.05567H7.884L10.256 4.18816C10.8251 3.73911 11.5117 3.49806 12.216 3.50001C14.5444 3.50459 16.7762 4.50739 18.4226 6.28878C20.069 8.07017 20.9958 10.4849 21 13.0042V14.1338C21 14.2888 20.9431 14.4374 20.8418 14.547C20.7406 14.6565 20.6032 14.7181 20.46 14.7181H13.578C13.4348 14.7181 13.2974 14.6565 13.1962 14.547C13.0949 14.4374 13.038 14.2888 13.038 14.1338V7.35189C13.038 7.19694 13.0949 7.04832 13.1962 6.93875C13.2974 6.82918 13.4348 6.76762 13.578 6.76762C13.7212 6.76762 13.8586 6.82918 13.9598 6.93875C14.0611 7.04832 14.118 7.19694 14.118 7.35189V13.5517H19.918V13.0042C19.9159 10.7943 19.1039 8.67557 17.66 7.11254C16.2162 5.54952 14.2584 4.66983 12.216 4.6664C11.7384 4.66823 11.2739 4.83502 10.89 5.14247L8.376 7.11169C8.28393 7.18335 8.17341 7.22195 8.06 7.22206H4.11C4.24368 8.45659 4.79131 9.59517 5.6491 10.422C6.50688 11.2488 7.61521 11.7064 8.764 11.708H11.08C11.2218 11.708 11.358 11.7683 11.459 11.876C11.5601 11.9838 11.6179 12.1301 11.62 12.2836V20.0047L20.234 15.694C20.2982 15.6619 20.3677 15.6438 20.4383 15.6407C20.509 15.6377 20.5796 15.6497 20.646 15.6761C20.7124 15.7025 20.7733 15.7428 20.8253 15.7947C20.8773 15.8466 20.9193 15.9091 20.949 15.9786C20.9787 16.0481 20.9954 16.1232 20.9983 16.1997C21.0011 16.2762 20.99 16.3525 20.9656 16.4243C20.9412 16.4962 20.9039 16.5621 20.8559 16.6184C20.808 16.6746 20.7502 16.7201 20.686 16.7522L11.306 21.4459C11.2353 21.4819 11.1581 21.5004 11.08 21.5Z" stroke="white" stroke-width="0.1"/>
<path d="M11.2161 8.68486C11.7054 8.68486 12.1021 8.25566 12.1021 7.72621C12.1021 7.19677 11.7054 6.76757 11.2161 6.76757C10.7268 6.76757 10.3301 7.19677 10.3301 7.72621C10.3301 8.25566 10.7268 8.68486 11.2161 8.68486Z" stroke="white" stroke-width="0.1"/>
</svg>
