<svg width="24" height="24" viewBox="0 0 24 24" fill="none" xmlns="http://www.w3.org/2000/svg">
<path d="M17.2686 5.72461C17.2686 7.1241 16.3428 8.09375 15.3862 8.09375C14.4297 8.09375 13.5039 7.1241 13.5039 5.72461C13.5039 4.32512 14.4297 3.35547 15.3862 3.35547C16.3428 3.35547 17.2686 4.32512 17.2686 5.72461Z" stroke="#1E88E5"/>
<path d="M6.26465 11.4629C6.26465 12.8624 5.3389 13.832 4.38232 13.832C3.42575 13.832 2.5 12.8624 2.5 11.4629C2.5 10.0634 3.42575 9.09375 4.38232 9.09375C5.3389 9.09375 6.26465 10.0634 6.26465 11.4629Z" stroke="#1E88E5"/>
<path d="M10.585 5.72461C10.585 7.1241 9.65921 8.09375 8.70264 8.09375C7.74606 8.09375 6.82031 7.1241 6.82031 5.72461C6.82031 4.32512 7.74606 3.35547 8.70264 3.35547C9.65921 3.35547 10.585 4.32512 10.585 5.72461Z" stroke="#1E88E5"/>
<path d="M21.499 11.4629C21.499 12.8624 20.5733 13.832 19.6167 13.832C18.6601 13.832 17.7344 12.8624 17.7344 11.4629C17.7344 10.0634 18.6601 9.09375 19.6167 9.09375C20.5733 9.09375 21.499 10.0634 21.499 11.4629Z" stroke="#1E88E5"/>
<path d="M17.4983 17.141L17.9973 17.1083L17.9973 17.1083L17.4983 17.141ZM15.5953 20.1143L15.3031 19.7086L15.3031 19.7086L15.5953 20.1143ZM16.2985 14.488L16.6747 14.1586L16.6747 14.1586L16.2985 14.488ZM16.1156 14.2771L16.4966 13.9533L16.4966 13.9533L16.1156 14.2771ZM15.1831 12.7343L14.7404 12.9667L14.7404 12.9667L15.1831 12.7343ZM14.4539 11.4556L14.0411 11.7378L14.0411 11.7378L14.4539 11.4556ZM12.002 10.1942L11.9562 10.6921L12.002 10.6963L12.0478 10.6921L12.002 10.1942ZM9.55005 11.4556L9.13728 11.1734L9.13728 11.1734L9.55005 11.4556ZM8.82083 12.7343L8.37811 12.5019L8.37811 12.5019L8.82083 12.7343ZM7.88827 14.2771L7.50732 13.9533L7.50732 13.9533L7.88827 14.2771ZM7.70541 14.488L7.32924 14.1586L7.32924 14.1586L7.70541 14.488ZM6.50557 17.141L6.00664 17.1083L6.50557 17.141ZM8.40862 20.1143L8.11641 20.52L8.11641 20.52L8.40862 20.1143ZM11.9055 21.1343L12.4054 21.1383L12.4093 20.6609L11.9326 20.635L11.9055 21.1343ZM11.9054 21.1414L11.4054 21.1374L11.4013 21.6499L11.9138 21.6413L11.9054 21.1414ZM12.002 21.1387L12.0206 20.6391L12.002 20.6384L11.9833 20.6391L12.002 21.1387ZM12.0985 21.1414L12.0901 21.6413L12.6026 21.6499L12.5985 21.1374L12.0985 21.1414ZM12.0984 21.1343L12.0713 20.635L11.5946 20.6609L11.5985 21.1383L12.0984 21.1343ZM16.9994 17.1737C17.0664 18.1949 16.366 18.943 15.3031 19.7086L15.8875 20.52C16.9553 19.751 18.1024 18.712 17.9973 17.1083L16.9994 17.1737ZM15.9223 14.8174C16.4331 15.4007 16.9196 15.9568 16.9994 17.1737L17.9973 17.1083C17.8952 15.5522 17.2237 14.7856 16.6747 14.1586L15.9223 14.8174ZM15.7347 14.601C15.7972 14.6745 15.8608 14.7472 15.9223 14.8174L16.6747 14.1586C16.6123 14.0874 16.5535 14.0203 16.4966 13.9533L15.7347 14.601ZM14.7404 12.9667C15.0375 13.5328 15.3698 14.1717 15.7347 14.601L16.4966 13.9533C16.2199 13.6278 15.9424 13.105 15.6258 12.5019L14.7404 12.9667ZM14.0411 11.7378C14.2713 12.0745 14.4975 12.5041 14.7404 12.9667L15.6258 12.5019C15.3905 12.0537 15.1363 11.5679 14.8666 11.1734L14.0411 11.7378ZM12.0478 10.6921C12.9478 10.6093 13.6463 11.1603 14.0411 11.7378L14.8666 11.1734C14.3594 10.4315 13.3554 9.56755 11.9562 9.69626L12.0478 10.6921ZM12.0478 9.69626C10.6485 9.56755 9.6445 10.4315 9.13728 11.1734L9.96282 11.7378C10.3576 11.1603 11.0561 10.6093 11.9562 10.6921L12.0478 9.69626ZM9.13728 11.1734C8.86763 11.5679 8.61337 12.0537 8.37811 12.5019L9.26354 12.9667C9.50639 12.5041 9.73263 12.0745 9.96282 11.7378L9.13728 11.1734ZM8.37811 12.5019C8.06155 13.105 7.78404 13.6278 7.50732 13.9533L8.26922 14.601C8.63414 14.1717 8.96639 13.5328 9.26354 12.9667L8.37811 12.5019ZM7.50732 13.9533C7.45038 14.0203 7.39157 14.0874 7.32924 14.1586L8.08159 14.8174C8.14308 14.7472 8.20675 14.6745 8.26922 14.601L7.50732 13.9533ZM7.32924 14.1586C6.78025 14.7856 6.10868 15.5522 6.00664 17.1083L7.0045 17.1737C7.08429 15.9568 7.57085 15.4007 8.08159 14.8174L7.32924 14.1586ZM6.00664 17.1083C5.90148 18.712 7.04859 19.751 8.11641 20.52L8.70083 19.7086C7.63789 18.943 6.93754 18.1949 7.0045 17.1737L6.00664 17.1083ZM8.11641 20.52C8.67117 20.9196 9.39473 21.1818 10.0645 21.3508C10.7414 21.5216 11.4072 21.6079 11.8783 21.6335L11.9326 20.635C11.5217 20.6127 10.9199 20.5353 10.3092 20.3812C9.69147 20.2253 9.1076 20.0015 8.70083 19.7086L8.11641 20.52ZM12.4054 21.1454L12.4054 21.1383L11.4055 21.1303L11.4054 21.1374L12.4054 21.1454ZM11.9833 20.6391C11.9529 20.6402 11.9241 20.641 11.897 20.6415L11.9138 21.6413C11.9482 21.6407 11.9838 21.6398 12.0206 21.6384L11.9833 20.6391ZM11.9833 21.6384C12.0201 21.6398 12.0557 21.6407 12.0901 21.6413L12.1069 20.6415C12.0798 20.641 12.051 20.6402 12.0206 20.6391L11.9833 21.6384ZM12.5985 21.1374L12.5984 21.1303L11.5985 21.1383L11.5985 21.1454L12.5985 21.1374ZM15.3031 19.7086C14.8963 20.0015 14.3124 20.2253 13.6947 20.3812C13.084 20.5353 12.4822 20.6127 12.0713 20.635L12.1256 21.6335C12.5967 21.6079 13.2625 21.5216 13.9394 21.3508C14.6092 21.1818 15.3327 20.9196 15.8875 20.52L15.3031 19.7086Z" fill="#1E88E5"/>
</svg>
