<svg width="24" height="24" viewBox="0 0 24 24" fill="none" xmlns="http://www.w3.org/2000/svg">
<path d="M15.8088 20.5318H18.7732C18.7975 20.5319 18.8217 20.5271 18.8441 20.5177C18.8666 20.5083 18.8869 20.4944 18.9038 20.4769C18.9208 20.4594 18.934 20.4387 18.9427 20.4159C18.9513 20.3932 18.9553 20.3689 18.9544 20.3446C18.9424 19.9992 18.7782 19.2563 18.3357 19.1091C17.9896 19.0061 17.6294 18.9585 17.2685 18.968C17.1991 18.9686 17.1318 18.9448 17.0783 18.9007C17.0248 18.8565 16.9886 18.7949 16.9761 18.7267L16.6277 16.8546C16.621 16.8163 16.6225 16.777 16.6321 16.7394C16.6418 16.7017 16.6594 16.6666 16.6838 16.6363C16.9841 16.2599 18.0213 14.7191 17.9853 13.5848M16.1741 12.906C16.1741 12.906 19.4409 13.8531 20.8355 12.1181C20.9027 12.0337 20.951 11.9359 20.9773 11.8312C21.0035 11.7266 21.0071 11.6175 20.9877 11.5114C20.9877 11.5024 20.9877 11.4934 20.9827 11.4844C20.8079 10.5693 20.3533 9.73114 19.6817 9.08554C19.0101 8.43994 18.1546 8.01877 17.2334 7.88023C16.891 7.82717 16.5606 7.78012 16.3043 7.7611C16.3043 7.7611 14.4952 3.16481 12.1715 3.00062C12.1271 2.99792 12.0826 3.00403 12.0406 3.01859C11.9986 3.03315 11.9598 3.05587 11.9266 3.08546C11.8934 3.11505 11.8664 3.1509 11.8471 3.19098C11.8277 3.23106 11.8166 3.27456 11.8141 3.31898C11.7481 4.43827 11.9143 8.16457 14.5283 9.11866M13.8236 8.98457L12.8795 10.4002C12.8061 10.5097 12.6994 10.5927 12.5752 10.6371C12.451 10.6814 12.3159 10.6847 12.1897 10.6465C11.1245 10.3281 8.38534 9.88861 6.32797 10.9168C5.85944 11.1511 2.87 13.0763 3.67292 17.8167C3.67292 17.9127 2.05307 17.7967 2.00101 19.1743C1.97298 19.9001 2.53261 20.5639 3.25945 20.5909C3.69195 20.6069 4.18752 20.4087 4.72013 19.6668C4.75618 19.6168 4.80023 19.6228 4.82025 19.6809C4.87631 19.8701 4.84528 20.3016 5.23272 20.5278C5.8194 20.8712 11.3788 20.663 13.4191 20.5438C14.4203 20.4858 14.7446 19.3164 13.5383 18.935C12.8144 18.7057 10.5588 18.7908 10.2495 18.8029C10.2472 18.8032 10.2448 18.8028 10.2427 18.8017C10.2406 18.8005 10.239 18.7988 10.238 18.7967C10.237 18.7945 10.2367 18.7921 10.2371 18.7898C10.2376 18.7875 10.2387 18.7854 10.2405 18.7838C10.4467 18.5576 12.1206 16.9717 11.579 15.461C11.0784 14.0774 9.10016 13.9593 9.10016 13.9593" stroke="#1E88E5" stroke-miterlimit="10" stroke-linecap="round"/>
</svg>
