<svg width="24" height="24" viewBox="0 0 24 24" fill="none" xmlns="http://www.w3.org/2000/svg">
<path d="M5.16667 11.75L6.13849 11.4627L7.08563 12.0616M6.13868 11.3521L7.59262 9.14618M7.59262 9.14618H11.3026M7.59262 9.14618L7.08563 8.90003M11.3026 9.14618L12.6667 11.3568M11.3026 9.14618L11.7351 8.90003M12.0278 11.9438L12.4994 11.4759M12.9152 11.3571L13.4864 11.4759M17.3684 9.23719C18.3849 8.84513 20.4661 8.99533 20.844 9.67648C21.2512 10.4124 20.8251 11.3949 19.9843 11.9438C19.7268 12.1082 19.4273 12.1945 19.1218 12.1923H18.4775C18.4088 12.1922 18.3409 12.2066 18.2782 12.2346C18.2155 12.2626 18.1595 12.3036 18.1138 12.3548C17.682 12.8394 18 12.5 16.8593 13.1891M15.5 14C15.5 14 16.1195 14.3216 16.333 15.0859C16.4268 15.4765 16.4361 15.8827 16.3604 16.2772C16.3538 16.3117 16.3564 16.3474 16.368 16.3806C16.3796 16.4138 16.3998 16.4433 16.4265 16.4661C16.623 16.6324 17.0878 17.0283 16.9254 17.6943C16.9169 17.7388 16.8936 17.7792 16.8593 17.8089C16.825 17.8385 16.7817 17.8558 16.7364 17.8577H13.9476C13.9286 17.8578 13.9098 17.8539 13.8924 17.8463C13.875 17.8387 13.8594 17.8276 13.8465 17.8137C13.8336 17.7997 13.8238 17.7833 13.8176 17.7653C13.8114 17.7474 13.809 17.7283 13.8106 17.7094C13.8541 17.1473 14.0655 15.3816 12.8128 15.0859M13.3971 15.7011C13.3971 15.7011 9.27994 16.1734 7.79199 15.8399M6.29916 15.2625C6.29916 15.2625 6.08943 15.3814 6.29916 16.1948C6.48244 16.9062 6.84994 17.439 6.54479 17.7385C6.46281 17.8139 6.35476 17.8546 6.24342 17.8519H3.21274C3.1678 17.8521 3.12459 17.8346 3.09255 17.8031C3.06051 17.7716 3.04224 17.7286 3.04174 17.6837C3.03324 17.1103 2.93316 15.478 3.5 15M16.4861 10.9904C16.5342 11.0617 16.5585 11.1463 16.5554 11.2322C16.5524 11.3181 16.5222 11.4008 16.4691 11.4685C16.0317 12.0249 14.7535 13.0273 13.2712 13.5582C9.75967 14.8147 6.40779 13.4637 4.33789 13.613C3.21367 13.6971 2.77059 13.8501 2.55897 13.8586C2.51178 13.8602 2.46508 13.8487 2.42405 13.8254C2.38302 13.802 2.34927 13.7677 2.32657 13.7264L2.01103 13.1482C2.00172 13.1269 1.99821 13.1035 2.00086 13.0805C2.00352 13.0574 2.01224 13.0355 2.02614 13.0169C2.64081 12.1786 3.13617 11.2591 3.49803 10.2847C4.09888 8.57477 5.11351 7.3844 6.74032 7.12554C8.05727 6.91581 10.7545 7.02164 11.7351 7.06887C12.0384 7.08301 12.3388 7.13408 12.6298 7.22096C13.2306 7.40235 14.1763 7.78779 14.5409 8.4935C15.7634 10.8525 16.1196 10.4529 16.4861 10.9904Z" stroke="#1E88E5" stroke-miterlimit="10" stroke-linecap="round"/>
</svg>
