<svg width="24" height="24" viewBox="0 0 24 24" fill="none" xmlns="http://www.w3.org/2000/svg">
<path d="M12.5835 15.1572C14.3102 15.1572 15.7099 13.7574 15.7099 12.0307C15.7099 10.3041 14.3102 8.9043 12.5835 8.9043C10.8568 8.9043 9.45703 10.3041 9.45703 12.0307C9.45703 13.7574 10.8568 15.1572 12.5835 15.1572Z" stroke="#1E88E5" stroke-miterlimit="10"/>
<path d="M7.73897 6.3295C8.38224 6.3295 8.90372 5.80803 8.90372 5.16475C8.90372 4.52148 8.38224 4 7.73897 4C7.0957 4 6.57422 4.52148 6.57422 5.16475C6.57422 5.80803 7.0957 6.3295 7.73897 6.3295Z" stroke="#1E88E5" stroke-miterlimit="10"/>
<path d="M5.16475 14.7279C5.80803 14.7279 6.3295 14.2065 6.3295 13.5632C6.3295 12.9199 5.80803 12.3984 5.16475 12.3984C4.52148 12.3984 4 12.9199 4 13.5632C4 14.2065 4.52148 14.7279 5.16475 14.7279Z" stroke="#1E88E5" stroke-miterlimit="10"/>
<path d="M12.5827 20.8588C13.226 20.8588 13.7475 20.3373 13.7475 19.694C13.7475 19.0508 13.226 18.5293 12.5827 18.5293C11.9394 18.5293 11.418 19.0508 11.418 19.694C11.418 20.3373 11.9394 20.8588 12.5827 20.8588Z" stroke="#1E88E5" stroke-miterlimit="10"/>
<path d="M18.8366 14.7279C19.4799 14.7279 20.0014 14.2065 20.0014 13.5632C20.0014 12.9199 19.4799 12.3984 18.8366 12.3984C18.1934 12.3984 17.6719 12.9199 17.6719 13.5632C17.6719 14.2065 18.1934 14.7279 18.8366 14.7279Z" stroke="#1E88E5" stroke-miterlimit="10"/>
<path d="M14.8523 7.30997C15.4955 7.30997 16.017 6.78849 16.017 6.14522C16.017 5.50195 15.4955 4.98047 14.8523 4.98047C14.209 4.98047 13.6875 5.50195 13.6875 6.14522C13.6875 6.78849 14.209 7.30997 14.8523 7.30997Z" stroke="#1E88E5" stroke-miterlimit="10"/>
<path d="M8.41406 6.14453L10.8662 9.39357" stroke="#1E88E5" stroke-linecap="round" stroke-linejoin="round"/>
<path d="M6.39062 13.3802L9.39446 12.6445" stroke="#1E88E5" stroke-linecap="round" stroke-linejoin="round"/>
<path d="M12.582 18.4053V15.1562" stroke="#1E88E5" stroke-linecap="round" stroke-linejoin="round"/>
<path d="M17.5461 13.1947L15.707 12.7656" stroke="#1E88E5" stroke-linecap="round" stroke-linejoin="round"/>
<path d="M14.4216 7.37109L13.8086 8.96496" stroke="#1E88E5" stroke-linecap="round" stroke-linejoin="round"/>
</svg>
