<svg width="24" height="24" viewBox="0 0 24 24" fill="none" xmlns="http://www.w3.org/2000/svg">
<path d="M8.97201 12.6108C8.5079 12.3265 7.95557 12.2384 7.42992 12.3626C7.22975 11.8446 6.84497 11.4263 6.35417 11.1933C5.37035 10.7359 4.21155 11.1144 3.6607 12.0729C3.25294 12.7886 3.27741 13.6827 3.72373 14.3739C4.03214 14.8382 4.07217 15.4396 3.82826 15.9438L2 19.4821L3.35006 20.2131L4.80468 21L6.63367 17.4617C6.89538 16.9675 7.39655 16.6587 7.94221 16.6564C8.74588 16.6418 9.47097 16.1537 9.80756 15.3998C10.2561 14.3861 9.89726 13.1855 8.9735 12.6108H8.97201Z" stroke="#1E88E5" stroke-linecap="round" stroke-linejoin="round"/>
<path d="M12.0206 7.44877C12.1033 7.9912 12.3982 8.48239 12.8453 8.82065C12.5683 9.29904 12.4919 9.8618 12.6323 10.3937C12.9218 11.4537 13.9883 12.1355 15.1119 11.9773C15.9491 11.8567 16.6403 11.2842 16.8916 10.5044C17.0546 9.9733 17.5041 9.5695 18.065 9.45046L23 8.34377L22.6848 6.82574L22.3454 5.19018L17.4104 6.29688C16.8456 6.39557 16.2697 6.19065 15.9069 5.76124C15.3631 5.13519 14.4971 4.86473 13.677 5.06512C12.5777 5.33784 11.8653 6.36393 12.0214 7.44953L12.0206 7.44877Z" stroke="#1E88E5" stroke-linecap="round" stroke-linejoin="round"/>
</svg>
