<svg width="24" height="24" viewBox="0 0 24 24" fill="none" xmlns="http://www.w3.org/2000/svg">
<path d="M4.7865 8.32067C4.74864 8.33444 4.71835 8.32481 4.69701 8.29038C4.67566 8.25596 4.67979 8.22429 4.70939 8.19675L4.73229 8.17511L4.76049 8.25083L4.76055 8.25099L4.76102 8.25225L4.7865 8.32067ZM4.7865 8.32067L4.81485 8.31012L4.81608 8.30966L5.17744 8.17509C5.16637 8.11076 5.14248 8.06002 5.12196 8.02691C5.10062 7.9925 5.06522 7.94847 5.01262 7.91023L4.73324 8.17422L4.76105 8.25068L4.76149 8.25188L4.762 8.25331L4.7865 8.32067ZM6.01631 7.46949C5.91231 7.66983 5.77858 7.85698 5.61669 8.02413C6.19607 7.87984 6.80845 8.02247 7.26442 8.40805C7.1931 8.18657 7.15587 7.95958 7.15113 7.7339M6.01631 7.46949C6.41065 7.46121 6.80103 7.55215 7.15113 7.7339M6.01631 7.46949C6.19805 7.11939 6.289 6.72901 6.28072 6.33467M6.01631 7.46949L6.28072 6.33467M7.15113 7.7339C7.35147 7.8379 7.53862 7.97163 7.70577 8.13352C7.56148 7.55414 7.70411 6.94175 8.0897 6.48578C7.86822 6.5571 7.64123 6.59434 7.41554 6.59908M7.15113 7.7339C7.14285 7.33955 7.2338 6.94917 7.41554 6.59908M7.41554 6.59908C7.02119 6.60735 6.63082 6.51641 6.28072 6.33467M7.41554 6.59908L6.28072 6.33467M5.34164 7.88942L5.26095 7.67273C5.28911 7.64349 5.31618 7.61349 5.34216 7.58278L5.34164 7.88942Z" fill="#252525" stroke="#1E88E5"/>
<path d="M19.9971 14.6893C20.0046 14.6625 19.9964 14.6418 19.9716 14.6287L19.9531 14.6189L19.9524 14.6185L19.5799 14.4194C19.5479 14.4649 19.5294 14.5092 19.5192 14.5423L19.9474 14.674L19.9474 14.674L19.9477 14.6741L19.9477 14.6741L19.9971 14.6893ZM19.9971 14.6893C19.9888 14.7162 19.9709 14.7286 19.9427 14.7258L19.9214 14.7239L19.9208 14.7238L19.5 14.6857C19.4984 14.6326 19.5064 14.587 19.5158 14.5536L19.9468 14.6751L19.9471 14.6752L19.9473 14.6753L19.9476 14.6754L19.9971 14.6893ZM18.5006 13.9261C18.653 13.8183 18.7892 13.6863 18.9031 13.5333C18.9544 13.7789 19.0763 14.0043 19.2537 14.1817C19.0632 14.1932 18.8782 14.2348 18.7045 14.3033M18.5006 13.9261C18.4321 13.7525 18.3905 13.5674 18.379 13.377C18.2015 13.5544 17.9761 13.6763 17.7306 13.7276C17.8835 13.8415 18.0156 13.9777 18.1234 14.1301M18.5006 13.9261C18.5532 14.0595 18.6217 14.1862 18.7045 14.3033M18.5006 13.9261C18.3835 14.0089 18.2568 14.0774 18.1234 14.1301M18.1234 14.1301C17.9498 14.1985 17.7647 14.2402 17.5742 14.2516C17.7516 14.4291 17.8735 14.6545 17.9248 14.9001C18.0387 14.7471 18.1749 14.6151 18.3273 14.5073M18.1234 14.1301C18.2062 14.2472 18.2747 14.3738 18.3273 14.5073M18.3273 14.5073C18.3958 14.6809 18.4374 14.866 18.4489 15.0564C18.6264 14.879 18.8518 14.7571 19.0973 14.7058C18.9444 14.5919 18.8123 14.4557 18.7045 14.3033M18.3273 14.5073C18.4444 14.4244 18.5711 14.356 18.7045 14.3033M17.9413 15.7998C17.9682 15.8074 17.9888 15.7991 18.0019 15.7743L18.0118 15.7559L18.0122 15.7551L18.2112 15.3826C18.1657 15.3506 18.1215 15.3321 18.0884 15.3219L17.9566 15.7501L17.9566 15.7501L17.9565 15.7504L17.9565 15.7505L17.9413 15.7998ZM17.9413 15.7998C17.9145 15.7915 17.9021 15.7736 17.9048 15.7454L17.9068 15.7241L17.9068 15.7235L17.9449 15.3027C17.998 15.3011 18.0436 15.3092 18.0771 15.3186L17.9555 15.7495L17.9554 15.7498L17.9554 15.75L17.9553 15.7503L17.9413 15.7998ZM16.8308 13.7441L16.8802 13.7592L16.8803 13.7593L16.8805 13.7593L16.8805 13.7594L17.3087 13.8911C17.2985 13.9242 17.28 13.9685 17.2481 14.014L16.8755 13.8149L16.8748 13.8145L16.8563 13.8046C16.8315 13.7916 16.8233 13.7709 16.8308 13.7441ZM16.8308 13.7441L16.8803 13.758L16.8806 13.7581L16.8808 13.7582L16.8811 13.7582L17.3121 13.8798C17.3215 13.8464 17.3295 13.8007 17.3279 13.7476L16.9071 13.7096L16.9065 13.7095L16.8852 13.7076C16.857 13.7048 16.8391 13.7172 16.8308 13.7441ZM18.8161 12.6775L18.826 12.659C18.8391 12.6343 18.8597 12.626 18.8866 12.6336C18.9134 12.6411 18.9258 12.6597 18.9231 12.688L18.9211 12.7093L18.9211 12.7099L18.883 13.1306C18.8299 13.1323 18.7843 13.1242 18.7509 13.1148C18.7126 13.104 18.6647 13.0843 18.6168 13.0506L18.8157 12.6782L18.8161 12.6775Z" fill="#252525" stroke="#1E88E5"/>
<path d="M15.9141 19.1719H18.6679" stroke="#1E88E5" stroke-linecap="round" stroke-linejoin="round"/>
<path d="M4 19.1719H6.75385" stroke="#1E88E5" stroke-linecap="round" stroke-linejoin="round"/>
<path d="M10.082 19.1719H12.0028" stroke="#1E88E5" stroke-linecap="round" stroke-linejoin="round"/>
<path d="M13.5353 10.3122C12.7153 12.719 12.4709 15.1114 12.7249 17.1796C12.2148 17.5892 11.9243 18.2474 12.0172 18.9434C12.1583 20.0016 13.1298 20.7444 14.1879 20.604C15.2461 20.4629 15.9889 19.4914 15.8485 18.4333C15.7556 17.7338 15.2991 17.172 14.6946 16.9125C14.3105 14.5042 14.5549 11.6554 15.5318 8.7886C16.3022 6.52768 17.4265 4.55386 18.738 3C16.5948 4.43131 14.6526 7.03646 13.5366 10.3122H13.5353Z" stroke="#1E88E5" stroke-linecap="round" stroke-linejoin="round"/>
<path d="M8.18143 12.4786C7.52945 14.3911 7.33531 16.292 7.53703 17.936C7.13152 18.261 6.90089 18.7849 6.97455 19.3378C7.08677 20.1784 7.85854 20.7691 8.69915 20.6575C9.53977 20.5453 10.1305 19.7736 10.0189 18.9329C9.94527 18.3773 9.58245 17.9305 9.1019 17.724C8.79623 15.8101 8.99106 13.5464 9.76696 11.2683C10.379 9.47139 11.2726 7.90307 12.3143 6.66797C10.6117 7.80531 9.06817 9.87552 8.18074 12.4786H8.18143Z" stroke="#1E88E5" stroke-linecap="round" stroke-linejoin="round"/>
</svg>
