<svg width="24" height="24" viewBox="0 0 24 24" fill="none" xmlns="http://www.w3.org/2000/svg">
<path d="M17.3983 18.752L17.3982 18.7518L16.1615 10.9459C16.1614 10.9458 16.1614 10.9458 16.1614 10.9457C16.0708 10.3716 16.4671 9.82638 17.0408 9.73568C17.615 9.6449 18.1603 10.0413 18.251 10.615L18.251 10.6152L19.4878 18.4211C19.5786 18.9953 19.1822 19.5406 18.6085 19.6313C18.0343 19.7221 17.489 19.3257 17.3983 18.752Z" stroke="#1E88E5" stroke-linecap="round" stroke-linejoin="round"/>
<path d="M11.028 12.29L11.0278 12.2899C10.5245 11.9992 10.3503 11.3476 10.6407 10.8452L10.6408 10.845L12.845 7.02778L12.845 7.02777C13.1357 6.52446 13.7874 6.35028 14.2897 6.64067L14.2899 6.64079C14.7932 6.93141 14.9674 7.58311 14.677 8.08545L14.6769 8.08565L12.4726 11.9029L12.4726 11.9029C12.182 12.4062 11.5303 12.5804 11.028 12.29Z" stroke="#1E88E5" stroke-linecap="round" stroke-linejoin="round"/>
<path d="M8.00841 16.4676L8.00836 16.4676L3.73619 11.2247C3.36916 10.7741 3.43766 10.1028 3.8877 9.73619C4.33827 9.36916 5.00963 9.43767 5.37622 9.8877L5.37627 9.88776L9.64843 15.1306C9.64845 15.1307 9.64847 15.1307 9.64848 15.1307C10.0155 15.5813 9.94694 16.2526 9.49693 16.6192C9.04636 16.9862 8.375 16.9177 8.00841 16.4676Z" stroke="#1E88E5" stroke-linecap="round" stroke-linejoin="round"/>
<path d="M14.4083 15.6139C14.6582 15.8638 14.6582 16.269 14.4083 16.5189C14.1584 16.7688 13.7532 16.7688 13.5033 16.5189C13.2534 16.269 13.2534 15.8638 13.5033 15.6139C13.7532 15.364 14.1584 15.364 14.4083 15.6139Z" stroke="#1E88E5" stroke-linecap="round" stroke-linejoin="round"/>
<path d="M8.74034 4.15885C8.99024 4.40876 8.99024 4.81392 8.74034 5.06382C8.49044 5.31372 8.08528 5.31372 7.83537 5.06381C7.58547 4.81391 7.58547 4.40875 7.83537 4.15885C8.08527 3.90895 8.49043 3.90895 8.74034 4.15885Z" stroke="#1E88E5" stroke-linecap="round" stroke-linejoin="round"/>
<path d="M9.61134 7.54199C9.61134 7.85818 9.35511 8.11523 9.0381 8.11523C8.7211 8.11523 8.46484 7.859 8.46484 7.54199C8.46484 7.22498 8.7211 6.96875 9.0381 6.96875C9.35511 6.96875 9.61134 7.22498 9.61134 7.54199Z" fill="#1E88E5"/>
<path d="M12.0723 17.1885C12.0723 17.5047 11.816 17.7617 11.499 17.7617C11.182 17.7617 10.9258 17.5055 10.9258 17.1885C10.9258 16.8715 11.182 16.6152 11.499 16.6152C11.816 16.6152 12.0723 16.8715 12.0723 17.1885Z" fill="#1E88E5"/>
<path d="M13.5183 19.7484C13.8622 19.8295 14.0753 20.1742 13.9941 20.5182C13.9129 20.8621 13.5683 21.0752 13.2243 20.994C12.8803 20.9128 12.6673 20.5681 12.7485 20.2242C12.8297 19.8802 13.1743 19.6672 13.5183 19.7484Z" stroke="#1E88E5" stroke-linecap="round" stroke-linejoin="round"/>
</svg>
