<svg width="24" height="24" viewBox="0 0 24 24" fill="none" xmlns="http://www.w3.org/2000/svg">
<path d="M10.2602 7.46562C10.941 7.46562 11.493 6.91368 11.493 6.23281C11.493 5.55195 10.941 5 10.2602 5C9.57929 5 9.02734 5.55195 9.02734 6.23281C9.02734 6.91368 9.57929 7.46562 10.2602 7.46562Z" stroke="#1E88E5" stroke-miterlimit="10"/>
<path d="M12.3525 18.4219C12.7474 17.8672 12.6179 17.0975 12.0632 16.7026C11.5086 16.3077 10.7388 16.4372 10.3439 16.9918C9.94903 17.5465 10.0785 18.3162 10.6332 18.7111C11.1878 19.106 11.9576 18.9765 12.3525 18.4219Z" stroke="#1E88E5" stroke-miterlimit="10"/>
<path d="M12.8124 13.681C13.7753 12.7181 13.7753 11.1569 12.8124 10.194C11.8495 9.23116 10.2884 9.23116 9.32548 10.1941C8.36259 11.1569 8.3626 12.7181 9.32549 13.681C10.2884 14.6438 11.8495 14.6439 12.8124 13.681Z" stroke="#1E88E5" stroke-miterlimit="10"/>
<path d="M11.4856 6.19922C11.5044 6.84375 11.0208 7.4 10.37 7.46172C9.75905 7.51953 9.21139 7.11953 9.06296 6.54375C6.68327 7.4289 5.08952 9.82968 5.33796 12.475C5.5864 15.1203 7.59968 17.1828 10.1036 17.6078C10.1426 17.0141 10.6059 16.5195 11.2169 16.4625C11.8677 16.4016 12.4466 16.8578 12.5481 17.4945C15.213 16.7859 17.0614 14.232 16.7942 11.3977C16.5278 8.56328 14.2356 6.39922 11.4856 6.19922Z" stroke="#1E88E5" stroke-miterlimit="10"/>
<path d="M3.5 9.00391C3.77614 9.00391 4 8.78005 4 8.50391C4 8.22776 3.77614 8.00391 3.5 8.00391C3.22386 8.00391 3 8.22776 3 8.50391C3 8.78005 3.22386 9.00391 3.5 9.00391Z" stroke="#1E88E5" stroke-miterlimit="10"/>
<path d="M19.5 13.0039C19.7761 13.0039 20 12.78 20 12.5039C20 12.2278 19.7761 12.0039 19.5 12.0039C19.2239 12.0039 19 12.2278 19 12.5039C19 12.78 19.2239 13.0039 19.5 13.0039Z" stroke="#1E88E5" stroke-miterlimit="10"/>
</svg>
