<svg width="24" height="24" viewBox="0 0 24 24" fill="none" xmlns="http://www.w3.org/2000/svg">
<path d="M5.58984 9.40934V6.22955C9.20759 6.14933 11.1649 4.60481 11.7955 4C12.4266 4.6054 14.3833 6.14933 18.0011 6.22955V11.5774C18.0011 14.4803 16.6995 17.2368 14.5191 18.9505C13.6673 19.6203 12.751 20.1092 11.7949 20.4048C10.8388 20.1092 9.92305 19.6203 9.07058 18.9505C8.81823 18.7526 8.57818 18.5406 8.35043 18.3158" stroke="#1E88E5" stroke-linecap="round" stroke-linejoin="round"/>
<path d="M10.5547 15.1621L10.8486 16.2593" stroke="#1E88E5" stroke-linecap="round" stroke-linejoin="round"/>
<path d="M12.3672 14.6758L12.6611 15.773" stroke="#1E88E5" stroke-linecap="round" stroke-linejoin="round"/>
<path d="M8.74609 15.6465L9.04001 16.7437" stroke="#1E88E5" stroke-linecap="round" stroke-linejoin="round"/>
<path d="M8.98438 9.71875L9.27829 10.816" stroke="#1E88E5" stroke-linecap="round" stroke-linejoin="round"/>
<path d="M10.7969 9.23242L11.0908 10.3296" stroke="#1E88E5" stroke-linecap="round" stroke-linejoin="round"/>
<path d="M7.17188 10.2031L7.46579 11.3003" stroke="#1E88E5" stroke-linecap="round" stroke-linejoin="round"/>
<path d="M13.4586 9.51562L12.8906 10.4998" stroke="#1E88E5" stroke-linecap="round" stroke-linejoin="round"/>
<path d="M5 11.7832L5.98421 12.3511" stroke="#1E88E5" stroke-linecap="round" stroke-linejoin="round"/>
<path d="M6.26953 16.5037L6.83746 15.5195" stroke="#1E88E5" stroke-linecap="round" stroke-linejoin="round"/>
<path d="M14.7264 14.2378L13.7422 13.6699" stroke="#1E88E5" stroke-linecap="round" stroke-linejoin="round"/>
<path d="M8.36774 15.5791L12.4158 14.4941C13.5288 14.1961 14.1957 13.041 13.8977 11.9279C13.5997 10.8149 12.4445 10.1481 11.3315 10.4461L7.28342 11.531C6.1704 11.829 5.50353 12.9842 5.80154 14.0972C6.09956 15.2102 7.25473 15.8771 8.36774 15.5791Z" stroke="#1E88E5" stroke-miterlimit="10"/>
<path d="M11.3115 12.0087C11.375 11.7602 11.2251 11.5074 10.9767 11.4439C10.7283 11.3803 10.4754 11.5303 10.4119 11.7787C10.3484 12.0271 10.4983 12.28 10.7467 12.3435C10.9951 12.407 11.248 12.2571 11.3115 12.0087Z" fill="#1E88E5"/>
<path d="M12.8846 12.4482C12.8846 12.6431 12.7265 12.8006 12.5322 12.8006C12.3378 12.8006 12.1797 12.6426 12.1797 12.4482C12.1797 12.2538 12.3378 12.0957 12.5322 12.0957C12.7265 12.0957 12.8846 12.2538 12.8846 12.4482Z" fill="#1E88E5"/>
<path d="M8.09946 14.3095C8.09946 14.5045 7.94138 14.662 7.747 14.662C7.55261 14.662 7.39453 14.5039 7.39453 14.3095C7.39453 14.1151 7.55261 13.957 7.747 13.957C7.94138 13.957 8.09946 14.1151 8.09946 14.3095Z" fill="#1E88E5"/>
<path d="M9.48618 13.4169C9.48618 13.6119 9.3281 13.7694 9.13372 13.7694C8.93933 13.7694 8.78125 13.6113 8.78125 13.4169C8.78125 13.2225 8.93933 13.0645 9.13372 13.0645C9.3281 13.0645 9.48618 13.2225 9.48618 13.4169Z" fill="#1E88E5"/>
</svg>
