<svg width="24" height="24" viewBox="0 0 24 24" fill="none" xmlns="http://www.w3.org/2000/svg">
<path d="M2 11.648C5.17877 10.3743 8.54043 9.72852 12 9.72852C15.4596 9.72852 18.8212 10.3743 22 11.648" stroke="#1E88E5" stroke-linecap="round" stroke-linejoin="round"/>
<path d="M6.1279 13.0848C6.1279 13.2496 5.9785 13.4293 5.73582 13.4293C5.49314 13.4293 5.34375 13.2496 5.34375 13.0848C5.34375 12.9199 5.49314 12.7402 5.73582 12.7402C5.9785 12.7402 6.1279 12.9199 6.1279 13.0848Z" stroke="#1E88E5" stroke-linecap="round" stroke-linejoin="round"/>
<path d="M9.26071 13.0848C9.26071 13.2496 9.11132 13.4293 8.86864 13.4293C8.62596 13.4293 8.47656 13.2496 8.47656 13.0848C8.47656 12.9199 8.62596 12.7402 8.86864 12.7402C9.11132 12.7402 9.26071 12.9199 9.26071 13.0848Z" stroke="#1E88E5" stroke-linecap="round" stroke-linejoin="round"/>
<path d="M12.3896 13.0848C12.3896 13.2496 12.2402 13.4293 11.9975 13.4293C11.7549 13.4293 11.6055 13.2496 11.6055 13.0848C11.6055 12.9199 11.7549 12.7402 11.9975 12.7402C12.2402 12.7402 12.3896 12.9199 12.3896 13.0848Z" stroke="#1E88E5" stroke-linecap="round" stroke-linejoin="round"/>
<path d="M15.5224 13.0848C15.5224 13.2496 15.373 13.4293 15.1304 13.4293C14.8877 13.4293 14.7383 13.2496 14.7383 13.0848C14.7383 12.9199 14.8877 12.7402 15.1304 12.7402C15.373 12.7402 15.5224 12.9199 15.5224 13.0848Z" stroke="#1E88E5" stroke-linecap="round" stroke-linejoin="round"/>
<path d="M18.6513 13.0848C18.6513 13.2496 18.5019 13.4293 18.2593 13.4293C18.0166 13.4293 17.8672 13.2496 17.8672 13.0848C17.8672 12.9199 18.0166 12.7402 18.2593 12.7402C18.5019 12.7402 18.6513 12.9199 18.6513 13.0848Z" stroke="#1E88E5" stroke-linecap="round" stroke-linejoin="round"/>
<path d="M7.30223 16.4723C7.79491 16.4723 8.1943 16.0942 8.1943 15.6278C8.1943 15.1613 7.79491 14.7832 7.30223 14.7832C6.80955 14.7832 6.41016 15.1613 6.41016 15.6278C6.41016 16.0942 6.80955 16.4723 7.30223 16.4723Z" fill="#1E88E5"/>
<path d="M10.4311 16.4723C10.9238 16.4723 11.3232 16.0942 11.3232 15.6278C11.3232 15.1613 10.9238 14.7832 10.4311 14.7832C9.93846 14.7832 9.53906 15.1613 9.53906 15.6278C9.53906 16.0942 9.93846 16.4723 10.4311 16.4723Z" fill="#1E88E5"/>
<path d="M13.5639 16.4723C14.0566 16.4723 14.456 16.0942 14.456 15.6278C14.456 15.1613 14.0566 14.7832 13.5639 14.7832C13.0713 14.7832 12.6719 15.1613 12.6719 15.6278C12.6719 16.0942 13.0713 16.4723 13.5639 16.4723Z" fill="#1E88E5"/>
<path d="M16.6929 16.4723C17.1855 16.4723 17.5849 16.0942 17.5849 15.6278C17.5849 15.1613 17.1855 14.7832 16.6929 14.7832C16.2002 14.7832 15.8008 15.1613 15.8008 15.6278C15.8008 16.0942 16.2002 16.4723 16.6929 16.4723Z" fill="#1E88E5"/>
<path d="M2 9.9195C5.17877 8.64583 8.54043 8 12 8C15.4596 8 18.8212 8.64583 22 9.9195" stroke="#1E88E5" stroke-linecap="round" stroke-linejoin="round"/>
</svg>
